<svg xmlns="http://www.w3.org/2000/svg" width="38" height="32" viewBox="0 0 38 32"><g><g clip-path="url(#clip-6c2a4d62-1088-489d-8092-f849fe5dfb9d)"><path fill="#76a9ea" d="M37.142 3.918c-.85.377-1.732.674-2.638.89a8.223 8.223 0 0 0 2.17-3.458.431.431 0 0 0-.63-.502 15.218 15.218 0 0 1-4.032 1.666 1.069 1.069 0 0 1-.958-.238 8.246 8.246 0 0 0-5.456-2.06c-.87 0-1.75.136-2.613.404a7.99 7.99 0 0 0-5.384 5.756 8.797 8.797 0 0 0-.195 3.037.306.306 0 0 1-.331.333c-5.853-.544-11.131-3.364-14.862-7.94a.431.431 0 0 0-.707.055A8.24 8.24 0 0 0 .39 6.007c0 2.235.899 4.342 2.459 5.878a7.39 7.39 0 0 1-1.881-.728.431.431 0 0 0-.64.371 8.257 8.257 0 0 0 4.816 7.607 7.377 7.377 0 0 1-1.566-.13.431.431 0 0 0-.491.555 8.265 8.265 0 0 0 6.528 5.621A15.217 15.217 0 0 1 1.09 27.77H.137a.631.631 0 0 0-.617.476.653.653 0 0 0 .313.722 22.634 22.634 0 0 0 11.373 3.066c3.496 0 6.766-.693 9.72-2.061a21.463 21.463 0 0 0 7.11-5.33 23.363 23.363 0 0 0 4.355-7.292c.968-2.587 1.48-5.347 1.48-7.982v-.125c0-.423.191-.822.525-1.093a16.299 16.299 0 0 0 3.279-3.598c.24-.36-.138-.81-.533-.634z"/></g></g></svg>