<svg xmlns="http://www.w3.org/2000/svg" width="38" height="38" viewBox="0 0 38 38"><g><g clip-path="url(#clip-3d238b69-f056-4ada-9c60-35702cd9779f)"><path fill="#475993" d="M32.596 0H4.654A5.154 5.154 0 0 0-.5 5.154v27.942a5.154 5.154 0 0 0 5.154 5.154h13.78l.024-13.669h-3.55a.838.838 0 0 1-.839-.834l-.017-4.406a.838.838 0 0 1 .838-.841h3.545v-4.257c0-4.94 3.017-7.631 7.424-7.631h3.617c.463 0 .838.375.838.838v3.715a.838.838 0 0 1-.838.838h-2.219c-2.397 0-2.86 1.14-2.86 2.811V18.5h5.266c.502 0 .89.438.832.936l-.522 4.406a.838.838 0 0 1-.833.74h-4.72l-.024 13.668h8.2a5.154 5.154 0 0 0 5.154-5.154V5.154A5.154 5.154 0 0 0 32.596 0z"/></g></g></svg>