<svg xmlns="http://www.w3.org/2000/svg" width="64" height="17" viewBox="0 0 64 17"><g><g><path fill="#fff" d="M0 17v-7h7v7z"/></g><g><path fill="#fff" d="M0 7V0h7v7z"/></g><g><path fill="#fff" d="M10 7V0h6v7z"/></g><g><path fill="#fff" d="M10 17v-7h6v7z"/></g><g><path fill="#fff" d="M24 17v-7h7v7z"/></g><g><path fill="#fff" d="M24 7V0h7v7z"/></g><g><path fill="#fff" d="M34 7V0h6v7z"/></g><g><path fill="#fff" d="M34 17v-7h6v7z"/></g><g><path fill="#fff" d="M48 17v-7h7v7z"/></g><g><path fill="#fff" d="M48 7V0h7v7z"/></g><g><path fill="#fff" d="M58 7V0h6v7z"/></g><g><path fill="#fff" d="M58 17v-7h6v7z"/></g></g></svg>