<svg xmlns="http://www.w3.org/2000/svg" width="38" height="38" viewBox="0 0 38 38"><defs><linearGradient id="fx4ya" x1="18.63" x2="18.63" y1=".32" y2="38.16" gradientUnits="userSpaceOnUse"><stop offset="0" stop-color="#e09b3d"/><stop offset=".3" stop-color="#c74c4d"/><stop offset=".6" stop-color="#c21975"/><stop offset="1" stop-color="#7024c4"/></linearGradient><linearGradient id="fx4yb" x1="18.63" x2="18.63" y1=".31" y2="38.16" gradientUnits="userSpaceOnUse"><stop offset="0" stop-color="#e09b3d"/><stop offset=".3" stop-color="#c74c4d"/><stop offset=".6" stop-color="#c21975"/><stop offset="1" stop-color="#7024c4"/></linearGradient><linearGradient id="fx4yc" x1="28.54" x2="28.54" y1=".32" y2="38.16" gradientUnits="userSpaceOnUse"><stop offset="0" stop-color="#e09b3d"/><stop offset=".3" stop-color="#c74c4d"/><stop offset=".6" stop-color="#c21975"/><stop offset="1" stop-color="#7024c4"/></linearGradient></defs><g><g><path fill="url(#fx4ya)" d="M33.902 26.855a7.547 7.547 0 0 1-7.547 7.547h-15.46a7.547 7.547 0 0 1-7.547-7.547v-15.46a7.547 7.547 0 0 1 7.547-7.547h15.46a7.547 7.547 0 0 1 7.547 7.547v15.46zM26.355 0h-15.46C4.612 0-.5 5.112-.5 11.395v15.46c0 6.283 5.112 11.395 11.395 11.395h15.46c6.283 0 11.395-5.112 11.395-11.395v-15.46C37.75 5.112 32.638 0 26.355 0z"/></g><g><path fill="url(#fx4yb)" d="M18.625 25.17a6.045 6.045 0 1 1 0-12.09 6.045 6.045 0 0 1 0 12.09zm0-15.938c-5.455 0-9.893 4.438-9.893 9.893 0 5.455 4.438 9.893 9.893 9.893 5.455 0 9.893-4.438 9.893-9.893 0-5.455-4.438-9.893-9.893-9.893z"/></g><g><path fill="url(#fx4yc)" d="M26.166 9.306a2.37 2.37 0 1 1 4.741 0 2.37 2.37 0 0 1-4.74 0z"/></g></g></svg>